{
    "asset" : {
        "generator" : "Khronos glTF Blender I/O v1.1.46",
        "version" : "2.0"
    },
    "scene" : 0,
    "scenes" : [
        {
            "name" : "Scene",
            "nodes" : [
                0
            ]
        }
    ],
    "nodes" : [
        {
            "mesh" : 0,
            "name" : "orangutan",
            "rotation" : [
                0,
                0.7071067690849304,
                -0.7071067690849304,
                -3.0908619663705394e-08
            ]
        }
    ],
    "materials" : [
        {
            "doubleSided" : true,
            "emissiveFactor" : [
                0,
                0,
                0
            ],
            "name" : "defaultMat",
            "pbrMetallicRoughness" : {
                "baseColorFactor" : [
                    0.800000011920929,
                    0.800000011920929,
                    0.800000011920929,
                    1
                ],
                "metallicFactor" : 0,
                "roughnessFactor" : 0.5
            }
        }
    ],
    "meshes" : [
        {
            "name" : "orangutan",
            "primitives" : [
                {
                    "attributes" : {
                        "POSITION" : 0,
                        "NORMAL" : 1,
                        "TEXCOORD_0" : 2
                    },
                    "indices" : 3,
                    "material" : 0
                }
            ]
        }
    ],
    "accessors" : [
        {
            "bufferView" : 0,
            "componentType" : 5126,
            "count" : 51021,
            "max" : [
                0.7775969505310059,
                1.2885630130767822,
                1.4253883361816406
            ],
            "min" : [
                -0.7773351073265076,
                -1.1759483814239502,
                -1.0660209655761719
            ],
            "type" : "VEC3"
        },
        {
            "bufferView" : 1,
            "componentType" : 5126,
            "count" : 51021,
            "type" : "VEC3"
        },
        {
            "bufferView" : 2,
            "componentType" : 5126,
            "count" : 51021,
            "type" : "VEC2"
        },
        {
            "bufferView" : 3,
            "componentType" : 5123,
            "count" : 263052,
            "type" : "SCALAR"
        }
    ],
    "bufferViews" : [
        {
            "buffer" : 0,
            "byteLength" : 612252,
            "byteOffset" : 0
        },
        {
            "buffer" : 0,
            "byteLength" : 612252,
            "byteOffset" : 612252
        },
        {
            "buffer" : 0,
            "byteLength" : 408168,
            "byteOffset" : 1224504
        },
        {
            "buffer" : 0,
            "byteLength" : 526104,
            "byteOffset" : 1632672
        }
    ],
    "buffers" : [
        {
            "byteLength" : 2158776,
            "uri" : "monkey.bin"
        }
    ]
}
