{
    "asset" : {
        "generator" : "Khronos glTF Blender I/O v1.1.46",
        "version" : "2.0"
    },
    "scene" : 0,
    "scenes" : [
        {
            "name" : "Scene",
            "nodes" : [
                0
            ]
        }
    ],
    "nodes" : [
        {
            "mesh" : 0,
            "name" : "Tyrannosaurus_2",
            "rotation" : [
                0.7071067690849304,
                0,
                0,
                0.7071067690849304
            ]
        }
    ],
    "materials" : [
        {
            "doubleSided" : true,
            "emissiveFactor" : [
                0,
                0,
                0
            ],
            "name" : "skin",
            "pbrMetallicRoughness" : {
                "baseColorFactor" : [
                    0.800000011920929,
                    0.800000011920929,
                    0.800000011920929,
                    1
                ],
                "metallicFactor" : 0,
                "roughnessFactor" : 0.5
            }
        },
        {
            "doubleSided" : true,
            "emissiveFactor" : [
                0,
                0,
                0
            ],
            "name" : "spikes",
            "pbrMetallicRoughness" : {
                "baseColorFactor" : [
                    0.800000011920929,
                    0.800000011920929,
                    0.800000011920929,
                    1
                ],
                "metallicFactor" : 0,
                "roughnessFactor" : 0.5
            }
        },
        {
            "doubleSided" : true,
            "emissiveFactor" : [
                0,
                0,
                0
            ],
            "name" : "mouth",
            "pbrMetallicRoughness" : {
                "baseColorFactor" : [
                    0.800000011920929,
                    0.800000011920929,
                    0.800000011920929,
                    1
                ],
                "metallicFactor" : 0,
                "roughnessFactor" : 0.5
            }
        },
        {
            "doubleSided" : true,
            "emissiveFactor" : [
                0,
                0,
                0
            ],
            "name" : "teeth",
            "pbrMetallicRoughness" : {
                "baseColorFactor" : [
                    0.800000011920929,
                    0.800000011920929,
                    0.800000011920929,
                    1
                ],
                "metallicFactor" : 0,
                "roughnessFactor" : 0.5
            }
        },
        {
            "doubleSided" : true,
            "emissiveFactor" : [
                0,
                0,
                0
            ],
            "name" : "eye",
            "pbrMetallicRoughness" : {
                "baseColorFactor" : [
                    0.800000011920929,
                    0.800000011920929,
                    0.800000011920929,
                    1
                ],
                "metallicFactor" : 0,
                "roughnessFactor" : 0.5
            }
        },
        {
            "doubleSided" : true,
            "emissiveFactor" : [
                0,
                0,
                0
            ],
            "name" : "claws",
            "pbrMetallicRoughness" : {
                "baseColorFactor" : [
                    0.800000011920929,
                    0.800000011920929,
                    0.800000011920929,
                    1
                ],
                "metallicFactor" : 0,
                "roughnessFactor" : 0.5
            }
        }
    ],
    "meshes" : [
        {
            "name" : "Tyrannosaurus_2",
            "primitives" : [
                {
                    "attributes" : {
                        "POSITION" : 0,
                        "NORMAL" : 1,
                        "TEXCOORD_0" : 2
                    },
                    "indices" : 3,
                    "material" : 0
                },
                {
                    "attributes" : {
                        "POSITION" : 4,
                        "NORMAL" : 5,
                        "TEXCOORD_0" : 6
                    },
                    "indices" : 7,
                    "material" : 1
                },
                {
                    "attributes" : {
                        "POSITION" : 8,
                        "NORMAL" : 9,
                        "TEXCOORD_0" : 10
                    },
                    "indices" : 11,
                    "material" : 2
                },
                {
                    "attributes" : {
                        "POSITION" : 12,
                        "NORMAL" : 13,
                        "TEXCOORD_0" : 14
                    },
                    "indices" : 15,
                    "material" : 3
                },
                {
                    "attributes" : {
                        "POSITION" : 16,
                        "NORMAL" : 17,
                        "TEXCOORD_0" : 18
                    },
                    "indices" : 19,
                    "material" : 4
                },
                {
                    "attributes" : {
                        "POSITION" : 20,
                        "NORMAL" : 21,
                        "TEXCOORD_0" : 22
                    },
                    "indices" : 23,
                    "material" : 5
                }
            ]
        }
    ],
    "accessors" : [
        {
            "bufferView" : 0,
            "componentType" : 5126,
            "count" : 88708,
            "max" : [
                94.66746520996094,
                465.55645751953125,
                0.16333000361919403
            ],
            "min" : [
                -94.66746520996094,
                -526.0310668945312,
                -392.8968505859375
            ],
            "type" : "VEC3"
        },
        {
            "bufferView" : 1,
            "componentType" : 5126,
            "count" : 88708,
            "type" : "VEC3"
        },
        {
            "bufferView" : 2,
            "componentType" : 5126,
            "count" : 88708,
            "type" : "VEC2"
        },
        {
            "bufferView" : 3,
            "componentType" : 5125,
            "count" : 126756,
            "type" : "SCALAR"
        },
        {
            "bufferView" : 4,
            "componentType" : 5126,
            "count" : 63808,
            "max" : [
                0.8305209875106812,
                341.8247375488281,
                -272.4179992675781
            ],
            "min" : [
                -0.8305209875106812,
                -522.38818359375,
                -402.15057373046875
            ],
            "type" : "VEC3"
        },
        {
            "bufferView" : 5,
            "componentType" : 5126,
            "count" : 63808,
            "type" : "VEC3"
        },
        {
            "bufferView" : 6,
            "componentType" : 5126,
            "count" : 63808,
            "type" : "VEC2"
        },
        {
            "bufferView" : 7,
            "componentType" : 5123,
            "count" : 95712,
            "type" : "SCALAR"
        },
        {
            "bufferView" : 8,
            "componentType" : 5126,
            "count" : 4824,
            "max" : [
                19.433801651000977,
                462.50115966796875,
                -287.1459045410156
            ],
            "min" : [
                -19.433801651000977,
                331.0518493652344,
                -349.449462890625
            ],
            "type" : "VEC3"
        },
        {
            "bufferView" : 9,
            "componentType" : 5126,
            "count" : 4824,
            "type" : "VEC3"
        },
        {
            "bufferView" : 10,
            "componentType" : 5126,
            "count" : 4824,
            "type" : "VEC2"
        },
        {
            "bufferView" : 11,
            "componentType" : 5123,
            "count" : 6840,
            "type" : "SCALAR"
        },
        {
            "bufferView" : 12,
            "componentType" : 5126,
            "count" : 9056,
            "max" : [
                20.138011932373047,
                463.0424499511719,
                -288.4919128417969
            ],
            "min" : [
                -20.138011932373047,
                405.4498596191406,
                -347.54998779296875
            ],
            "type" : "VEC3"
        },
        {
            "bufferView" : 13,
            "componentType" : 5126,
            "count" : 9056,
            "type" : "VEC3"
        },
        {
            "bufferView" : 14,
            "componentType" : 5126,
            "count" : 9056,
            "type" : "VEC2"
        },
        {
            "bufferView" : 15,
            "componentType" : 5123,
            "count" : 12288,
            "type" : "SCALAR"
        },
        {
            "bufferView" : 16,
            "componentType" : 5126,
            "count" : 1728,
            "max" : [
                19.298229217529297,
                377.72528076171875,
                -364.94549560546875
            ],
            "min" : [
                -19.298229217529297,
                369.60052490234375,
                -373.57501220703125
            ],
            "type" : "VEC3"
        },
        {
            "bufferView" : 17,
            "componentType" : 5126,
            "count" : 1728,
            "type" : "VEC3"
        },
        {
            "bufferView" : 18,
            "componentType" : 5126,
            "count" : 1728,
            "type" : "VEC2"
        },
        {
            "bufferView" : 19,
            "componentType" : 5123,
            "count" : 2592,
            "type" : "SCALAR"
        },
        {
            "bufferView" : 20,
            "componentType" : 5126,
            "count" : 5472,
            "max" : [
                95.90910339355469,
                238.55332946777344,
                -2.038053035736084
            ],
            "min" : [
                -95.90910339355469,
                -30.05937385559082,
                -179.69053649902344
            ],
            "type" : "VEC3"
        },
        {
            "bufferView" : 21,
            "componentType" : 5126,
            "count" : 5472,
            "type" : "VEC3"
        },
        {
            "bufferView" : 22,
            "componentType" : 5126,
            "count" : 5472,
            "type" : "VEC2"
        },
        {
            "bufferView" : 23,
            "componentType" : 5123,
            "count" : 7776,
            "type" : "SCALAR"
        }
    ],
    "bufferViews" : [
        {
            "buffer" : 0,
            "byteLength" : 1064496,
            "byteOffset" : 0
        },
        {
            "buffer" : 0,
            "byteLength" : 1064496,
            "byteOffset" : 1064496
        },
        {
            "buffer" : 0,
            "byteLength" : 709664,
            "byteOffset" : 2128992
        },
        {
            "buffer" : 0,
            "byteLength" : 507024,
            "byteOffset" : 2838656
        },
        {
            "buffer" : 0,
            "byteLength" : 765696,
            "byteOffset" : 3345680
        },
        {
            "buffer" : 0,
            "byteLength" : 765696,
            "byteOffset" : 4111376
        },
        {
            "buffer" : 0,
            "byteLength" : 510464,
            "byteOffset" : 4877072
        },
        {
            "buffer" : 0,
            "byteLength" : 191424,
            "byteOffset" : 5387536
        },
        {
            "buffer" : 0,
            "byteLength" : 57888,
            "byteOffset" : 5578960
        },
        {
            "buffer" : 0,
            "byteLength" : 57888,
            "byteOffset" : 5636848
        },
        {
            "buffer" : 0,
            "byteLength" : 38592,
            "byteOffset" : 5694736
        },
        {
            "buffer" : 0,
            "byteLength" : 13680,
            "byteOffset" : 5733328
        },
        {
            "buffer" : 0,
            "byteLength" : 108672,
            "byteOffset" : 5747008
        },
        {
            "buffer" : 0,
            "byteLength" : 108672,
            "byteOffset" : 5855680
        },
        {
            "buffer" : 0,
            "byteLength" : 72448,
            "byteOffset" : 5964352
        },
        {
            "buffer" : 0,
            "byteLength" : 24576,
            "byteOffset" : 6036800
        },
        {
            "buffer" : 0,
            "byteLength" : 20736,
            "byteOffset" : 6061376
        },
        {
            "buffer" : 0,
            "byteLength" : 20736,
            "byteOffset" : 6082112
        },
        {
            "buffer" : 0,
            "byteLength" : 13824,
            "byteOffset" : 6102848
        },
        {
            "buffer" : 0,
            "byteLength" : 5184,
            "byteOffset" : 6116672
        },
        {
            "buffer" : 0,
            "byteLength" : 65664,
            "byteOffset" : 6121856
        },
        {
            "buffer" : 0,
            "byteLength" : 65664,
            "byteOffset" : 6187520
        },
        {
            "buffer" : 0,
            "byteLength" : 43776,
            "byteOffset" : 6253184
        },
        {
            "buffer" : 0,
            "byteLength" : 15552,
            "byteOffset" : 6296960
        }
    ],
    "buffers" : [
        {
            "byteLength" : 6312512,
            "uri" : "dinosaur.bin"
        }
    ]
}
